HIERARCHY
ROOT Hips
{
	OFFSET -0.001795 -0.223333 0.028219
	CHANNELS 6 Xposition Yposition Zposition Zrotation Yrotation Xrotation 
	JOINT LeftUpLeg
	{
		OFFSET 0.069520 -0.091406 -0.006815
		CHANNELS 3 Zrotation Yrotation Xrotation
		JOINT LeftLeg
		{
			OFFSET 0.034277 -0.375199 -0.004496
			CHANNELS 3 Zrotation Yrotation Xrotation
			JOINT LeftFoot
			{
				OFFSET -0.013596 -0.397961 -0.043693
				CHANNELS 3 Zrotation Yrotation Xrotation
				JOINT LeftToe
				{
					OFFSET 0.026358 -0.055791 0.119288
					CHANNELS 3 Zrotation Yrotation Xrotation
					End Site
					{
						OFFSET 0.000000 0.000000 0.000000
					}
				}
			}
		}
	}
	JOINT RightUpLeg
	{
		OFFSET -0.067670 -0.090522 -0.004320
		CHANNELS 3 Zrotation Yrotation Xrotation
		JOINT RightLeg
		{
			OFFSET -0.038290 -0.382569 -0.008850
			CHANNELS 3 Zrotation Yrotation Xrotation
			JOINT RightFoot
			{
				OFFSET 0.015774 -0.398415 -0.042312
				CHANNELS 3 Zrotation Yrotation Xrotation
				JOINT RightToe
				{
					OFFSET -0.025372 -0.048144 0.123348
					CHANNELS 3 Zrotation Yrotation Xrotation
					End Site
					{
						OFFSET 0.000000 0.000000 0.000000
					}
				}
			}
		}
	}
	JOINT Spine
	{
		OFFSET -0.002533 0.108963 -0.026696
		CHANNELS 3 Zrotation Yrotation Xrotation
		JOINT Spine1
		{
			OFFSET 0.005487 0.135180 0.001092
			CHANNELS 3 Zrotation Yrotation Xrotation
			JOINT Spine2
			{
				OFFSET 0.001457 0.052922 0.025425
				CHANNELS 3 Zrotation Yrotation Xrotation
				JOINT Neck
				{
					OFFSET -0.002778 0.213870 -0.042857
					CHANNELS 3 Zrotation Yrotation Xrotation
					JOINT Head
					{
						OFFSET 0.005152 0.064970 0.051349
						CHANNELS 3 Zrotation Yrotation Xrotation
						End Site
						{
							OFFSET 0.000000 0.000000 0.000000
						}
					}
				}
				JOINT LeftShoulder
				{
					OFFSET 0.078845 0.121749 -0.034090
					CHANNELS 3 Zrotation Yrotation Xrotation
					JOINT LeftArm
					{
						OFFSET 0.090977 0.030469 -0.008868
						CHANNELS 3 Zrotation Yrotation Xrotation
						JOINT LeftForeArm
						{
							OFFSET 0.259612 -0.012772 -0.027456
							CHANNELS 3 Zrotation Yrotation Xrotation
							JOINT LeftHand
							{
								OFFSET 0.249234 0.008986 -0.001171
								CHANNELS 3 Zrotation Yrotation Xrotation
								End Site
								{
									OFFSET 0.000000 0.000000 0.000000
								}
							}
						}
					}
				}
				JOINT RightShoulder
				{
					OFFSET -0.081759 0.118833 -0.038615
					CHANNELS 3 Zrotation Yrotation Xrotation
					JOINT RightArm
					{
						OFFSET -0.096012 0.032551 -0.009143
						CHANNELS 3 Zrotation Yrotation Xrotation
						JOINT RightForeArm
						{
							OFFSET -0.253742 -0.013329 -0.021401
							CHANNELS 3 Zrotation Yrotation Xrotation
							JOINT RightHand
							{
								OFFSET -0.255298 0.007772 -0.005559
								CHANNELS 3 Zrotation Yrotation Xrotation
								End Site
								{
									OFFSET 0.000000 0.000000 0.000000
								}
							}
						}
					}
				}
			}
		}
	}
}
MOTION
Frames: 13
Frame Time: 0.050000
0.000000 0.945357 0.000000 -1.812215 7.177845 10.569968 10.643938 -0.634962 -14.322001 -5.511353 0.448508 -2.622608 7.881208 18.217787 16.856844 0.000000 0.000000 0.000000 -1.520184 1.637608 -20.766029 3.943035 -0.478590 4.764278 -3.840888 -11.504420 13.582767 0.000000 0.000000 0.000000 -0.165375 -1.773955 28.647800 4.155265 -0.352435 -21.353253 -1.111039 -3.144204 26.493591 -4.446884 4.102591 -19.322489 0.000000 0.000000 0.000000 -11.589016 -23.255901 10.344786 -52.160261 -45.180463 12.520081 -1.535049 -35.328322 2.328075 0.000000 0.000000 0.000000 0.208100 25.887580 9.255460 56.357500 48.316763 17.371539 -4.419853 33.695513 0.264619 0.000000 0.000000 0.000000 
-0.000406 0.944663 0.000267 -2.222635 6.512551 10.922550 11.080268 -0.585803 -13.658828 -4.076039 0.361746 -3.521380 6.801621 16.692518 17.204323 0.000000 0.000000 0.000000 -2.016729 1.612866 -21.034829 5.492201 -0.716711 4.540956 -3.898713 -11.709625 13.486154 0.000000 0.000000 0.000000 0.371395 -1.814432 27.709756 4.143598 -0.382820 -21.166883 -1.141180 -2.842500 26.086848 -5.872965 5.003628 -19.391576 0.000000 0.000000 0.000000 -12.377332 -21.301614 9.571026 -52.676083 -43.562319 11.870221 -3.155062 -37.529309 3.100653 0.000000 0.000000 0.000000 -1.491991 26.326554 9.026715 58.896635 48.841260 19.004183 -5.647275 34.365690 -0.095364 0.000000 0.000000 0.000000 
-0.000297 0.944258 0.000670 -2.252373 6.119894 10.661335 11.047322 -0.564221 -13.043814 -4.563657 0.396794 -3.119601 7.158377 17.102280 16.990441 0.000000 0.000000 0.000000 -1.894746 1.638876 -20.908585 5.495367 -0.722483 5.218523 -3.743040 -11.435417 13.095388 0.000000 0.000000 0.000000 1.038003 -1.976852 27.655987 3.343701 -0.156020 -21.836421 -1.452701 -2.357442 25.970265 -5.411848 4.768457 -18.100405 0.000000 0.000000 0.000000 -12.559457 -20.773702 9.276297 -51.463981 -42.845544 11.084797 -4.711271 -37.385393 3.567692 0.000000 0.000000 0.000000 0.132644 25.084504 8.982325 59.506358 48.798876 19.246317 -3.959838 33.057474 0.396181 0.000000 0.000000 0.000000 
-0.000154 0.945477 0.001364 -2.467654 6.176354 10.506050 11.246468 -0.550269 -12.600701 -4.383875 0.381983 -3.622143 7.404509 17.522766 17.933153 0.000000 0.000000 0.000000 -1.856571 1.625168 -20.624789 5.633944 -0.736254 4.659348 -3.743737 -11.511898 13.802797 0.000000 0.000000 0.000000 0.981797 -1.899179 26.909077 3.837686 -0.312693 -21.249731 -1.682634 -2.417747 26.077084 -5.930745 5.110636 -18.045409 0.000000 0.000000 0.000000 -11.701977 -20.568465 9.024675 -53.240398 -41.956143 11.230695 -4.337439 -38.622824 3.589067 0.000000 0.000000 0.000000 -1.420326 24.492713 8.417864 60.096399 48.759932 19.559678 -3.631517 34.404452 0.507975 0.000000 0.000000 0.000000 
0.000180 0.945512 0.002300 -2.253865 7.153145 9.866191 10.983689 -0.583701 -12.238278 -4.970835 0.411573 -2.937366 7.424966 17.584060 17.247424 0.000000 0.000000 0.000000 -1.980159 1.521292 -19.856485 5.357420 -0.710808 4.656994 -4.204479 -12.224599 14.022039 0.000000 0.000000 0.000000 1.099780 -1.971835 26.680661 3.622746 -0.262500 -20.791207 -1.626040 -2.890180 25.796367 -5.655972 4.927418 -18.156912 0.000000 0.000000 0.000000 -11.362985 -20.120020 8.715816 -52.807266 -41.382463 10.815425 -4.936618 -39.527341 3.872856 0.000000 0.000000 0.000000 -0.883789 24.006861 8.348874 60.229538 48.274981 19.323782 -3.385269 34.421253 0.578446 0.000000 0.000000 0.000000 
0.000649 0.946469 0.003083 -2.070238 7.693107 9.796124 10.792859 -0.609092 -12.268510 -4.876601 0.399417 -2.957368 7.139680 17.267273 17.360329 0.000000 0.000000 0.000000 -2.063713 1.473451 -19.590361 5.250757 -0.705202 4.763049 -4.111253 -11.940589 13.678905 0.000000 0.000000 0.000000 1.095497 -1.995897 26.591932 3.529940 -0.200835 -21.323614 -1.518540 -2.675679 26.201170 -5.098643 4.636811 -18.673577 0.000000 0.000000 0.000000 -11.174655 -20.117694 8.589407 -52.080736 -40.580803 10.098000 -5.298665 -41.036065 4.148941 0.000000 0.000000 0.000000 -0.481474 23.534228 8.284486 59.330023 47.599077 18.549701 -2.465895 35.628495 0.917489 0.000000 0.000000 0.000000 
0.001399 0.947084 0.003724 -2.027919 8.237331 9.708972 10.513521 -0.638533 -12.359054 -4.811363 0.392280 -2.621007 7.108416 17.284042 17.328607 0.000000 0.000000 0.000000 -2.219380 1.428072 -19.532766 5.339056 -0.735904 5.030714 -4.576792 -12.719563 13.759788 0.000000 0.000000 0.000000 1.191578 -1.983115 25.836631 3.480018 -0.197161 -20.883215 -1.647923 -2.553039 26.013844 -4.630486 4.392525 -18.707331 0.000000 0.000000 0.000000 -11.289181 -19.722310 8.326219 -51.310747 -40.028972 9.574412 -5.072404 -41.430500 4.060335 0.000000 0.000000 0.000000 0.376800 23.375418 8.433376 59.110851 46.604144 17.909688 -2.488551 36.225848 0.963294 0.000000 0.000000 0.000000 
0.002478 0.947755 0.004243 -1.969683 8.668125 9.962491 10.092618 -0.680800 -12.669745 -4.550032 0.372506 -2.426608 6.793109 16.841161 16.741756 0.000000 0.000000 0.000000 -2.301999 1.407083 -19.619288 5.170813 -0.711742 4.914686 -4.811165 -13.084596 13.758482 0.000000 0.000000 0.000000 1.242880 -1.973806 25.313560 3.300734 -0.140866 -20.899851 -1.355819 -2.320553 26.107637 -4.353801 4.274321 -18.054947 0.000000 0.000000 0.000000 -11.548200 -19.711061 8.267366 -50.199124 -39.780949 9.090827 -4.409529 -41.201566 3.730380 0.000000 0.000000 0.000000 0.503719 23.112530 8.400066 59.135048 46.079029 17.687508 -2.172357 36.619736 1.106649 0.000000 0.000000 0.000000 
0.003869 0.948131 0.004802 -1.839319 9.054196 10.251514 9.508534 -0.729042 -12.900177 -4.089631 0.339570 -2.486881 6.488090 16.452876 16.566639 0.000000 0.000000 0.000000 -2.334153 1.398356 -19.795715 4.896052 -0.668051 4.764296 -4.902759 -13.198247 13.812795 0.000000 0.000000 0.000000 1.300998 -1.960581 24.784648 3.286204 -0.134401 -20.774960 -1.335823 -2.040232 26.092653 -4.042412 4.137132 -17.829937 0.000000 0.000000 0.000000 -11.969400 -19.474222 8.109241 -49.376586 -39.612280 8.746524 -3.428162 -39.929568 3.186261 0.000000 0.000000 0.000000 0.845476 22.945573 8.453146 58.698262 45.826382 17.436133 -2.207606 36.568593 1.112713 0.000000 0.000000 0.000000 
0.005319 0.948128 0.005303 -1.717367 9.264029 10.561375 9.142025 -0.768453 -13.305520 -3.836104 0.322437 -2.096500 6.459033 16.402700 16.231573 0.000000 0.000000 0.000000 -2.478540 1.390335 -20.233913 4.841530 -0.664057 4.906798 -5.048182 -13.430351 13.760549 0.000000 0.000000 0.000000 1.339525 -1.945585 24.407553 3.046006 -0.074290 -20.594056 -1.157198 -1.752318 25.981870 -3.888132 4.084065 -17.436825 0.000000 0.000000 0.000000 -12.122824 -19.186274 7.911712 -48.927440 -39.378939 8.497703 -2.904258 -38.646109 2.841852 0.000000 0.000000 0.000000 0.878797 22.656579 8.392471 59.032657 45.741352 17.618488 -2.069441 36.679115 1.191708 0.000000 0.000000 0.000000 
0.006654 0.948517 0.005485 -1.658843 9.458597 10.803628 8.923706 -0.803928 -13.804308 -3.620870 0.306489 -1.695109 6.167509 16.013121 16.084121 0.000000 0.000000 0.000000 -2.628166 1.375705 -20.580377 4.889070 -0.673067 4.788720 -5.127404 -13.562316 14.152778 0.000000 0.000000 0.000000 1.244697 -1.920800 24.288231 2.959450 -0.046695 -20.604669 -0.838820 -1.313271 26.010161 -3.693867 4.021558 -16.948754 0.000000 0.000000 0.000000 -12.290909 -18.933764 7.703553 -48.888142 -39.216311 8.376787 -2.963369 -37.216114 2.697963 0.000000 0.000000 0.000000 0.725501 22.705965 8.416667 59.065560 45.934451 17.881066 -1.879313 36.614559 1.264128 0.000000 0.000000 0.000000 
0.007753 0.948558 0.005359 -1.732364 9.792003 10.985625 8.859428 -0.831272 -14.146852 -3.545523 0.298332 -1.570647 5.797956 15.494328 15.781985 0.000000 0.000000 0.000000 -2.794470 1.345570 -20.741988 5.033170 -0.697673 4.503263 -5.063983 -13.417001 14.597150 0.000000 0.000000 0.000000 1.129115 -1.952030 24.671424 3.076963 -0.052043 -21.036156 -0.336073 -0.724514 26.046430 -3.633257 4.073192 -16.564993 0.000000 0.000000 0.000000 -12.616264 -18.542498 7.400396 -49.115744 -39.019215 8.304195 -3.381514 -35.786095 2.667358 0.000000 0.000000 0.000000 0.786113 22.449709 8.390473 59.267712 45.637037 17.933831 -1.227553 36.882948 1.519928 0.000000 0.000000 0.000000 
0.008738 0.948880 0.005110 -1.641010 10.156325 11.394812 8.708303 -0.882097 -14.839565 -3.471428 0.289281 -1.318450 5.541871 15.205488 15.870162 0.000000 0.000000 0.000000 -2.984355 1.319285 -21.175346 5.038004 -0.703645 4.499950 -4.888522 -13.042894 14.532451 0.000000 0.000000 0.000000 0.991710 -1.949196 24.768700 3.073790 -0.034959 -21.225269 0.028668 -0.571084 26.098254 -3.468031 4.001810 -16.425028 0.000000 0.000000 0.000000 -13.131911 -18.241496 7.230024 -48.885078 -38.680135 8.072997 -4.358693 -34.844298 2.868604 0.000000 0.000000 0.000000 1.042535 22.398493 8.465158 59.324405 45.360895 17.842365 -0.909798 37.243006 1.661869 0.000000 0.000000 0.000000 
